<?xml version="1.0" encoding="UTF-8"?>
<svg xmlns="http://www.w3.org/2000/svg" version="1.1" viewBox="0 0 500 500">
  <defs>
    <style>
      .cls-1 {
        fill: #039;
      }

      .cls-2 {
        stroke-width: .4px;
      }

      .cls-2, .cls-3, .cls-4, .cls-5, .cls-6, .cls-7 {
        stroke: #000;
      }

      .cls-2, .cls-4, .cls-5, .cls-7, .cls-8 {
        fill: #ff0;
      }

      .cls-9, .cls-6 {
        fill: #fff;
      }

      .cls-10, .cls-3 {
        fill: red;
      }

      .cls-3 {
        stroke-width: .4px;
      }

      .cls-4 {
        stroke-width: .5px;
      }

      .cls-4, .cls-7 {
        fill-rule: evenodd;
        stroke-linejoin: round;
      }

      .cls-4, .cls-7, .cls-11 {
        stroke-linecap: round;
      }

      .cls-5 {
        stroke-miterlimit: 4;
        stroke-width: .4px;
      }

      .cls-6 {
        stroke-linejoin: bevel;
        stroke-width: .6px;
      }

      .cls-7 {
        stroke-width: .5px;
      }

      .cls-11 {
        stroke: #fff;
        stroke-width: 2.5px;
      }

      .cls-12 {
        fill: #060;
      }
    </style>
  </defs>
  <!-- Generator: Adobe Illustrator 28.6.0, SVG Export Plug-In . SVG Version: 1.2.0 Build 709)  -->
  <g>
    <g id="Layer_1">
      <g>
        <rect class="cls-10" y="207.5" width="500" height="292.5"/>
        <rect class="cls-12" y="207.5" width="200" height="292.5"/>
        <g>
          <path class="cls-4" d="M265.2,425.8c-25.2-.8-140.6-72.8-141.4-84.3l6.4-10.6c11.5,16.6,129.5,86.7,141.1,84.2l-6,10.7"/>
          <path class="cls-4" d="M128.8,329.5c-2.3,6.1,30.1,26.1,69.1,49.8,39,23.7,72.6,38.3,75,36.2.2-.3,1.2-2.1,1.1-2.1-.5.7-1.6.9-3.4.4-10.5-3-38-15.6-72-36.3-34-20.6-63.6-39.6-68.2-47.7-.3-.6-.5-1.6-.5-2.4h-.1s-1,1.7-1,1.7v.3h-.1,0ZM265.8,426.2c-.4.8-1.2.8-2.7.6-9.4-1-38-14.9-71.8-35.2-39.3-23.5-71.8-45-68.3-50.6l1-1.7h.2c-3.2,9.6,64.1,48,68.1,50.5,38.9,24.1,71.8,38.2,74.7,34.5l-1.1,1.8h0s0,0,0,0Z"/>
          <path class="cls-4" d="M200.1,348.5c25.2-.2,56.3-3.4,74.2-10.6l-3.9-6.3c-10.6,5.9-41.8,9.7-70.5,10.3-33.9-.3-57.9-3.5-69.9-11.5l-3.6,6.7c22.1,9.3,44.7,11.3,73.8,11.4"/>
          <path class="cls-4" d="M275.4,338.1c-.6,1-12.3,5-29.5,8-11.7,1.8-26.9,3.3-45.8,3.3-18,0-32.8-1.3-43.9-2.8-18-2.8-27.4-6.8-30.8-8.2.3-.7.5-1.1.9-1.7,9.9,3.9,19.3,6.3,30.2,8,11.1,1.5,25.6,2.8,43.6,2.8,18.9,0,33.9-1.7,45.5-3.4,17.6-2.8,27.3-6.5,28.6-8.2l1.2,2.1h0ZM272,331.7c-1.9,1.5-11.4,4.9-28.2,7.6-11.2,1.6-25.4,3-43.6,3.1-17.3,0-31.3-1.1-42.1-2.7-17-2.2-26.1-6.2-29.3-7.4.3-.6.7-1.1,1-1.7,2.5,1.3,11.3,4.8,28.5,7.3,10.6,1.5,24.7,2.6,41.9,2.6,18.1,0,32.1-1.5,43.2-3.1,16.8-2.3,25.9-6.6,27.3-7.7l1.2,2h0s0,0,0,0Z"/>
          <path class="cls-4" d="M117.4,378.9c15.5,8.3,49.9,12.5,82.5,12.8,29.7,0,68.3-4.6,82.7-12.2l-.4-8.3c-4.5,7.1-45.9,13.8-82.7,13.6-36.7-.3-70.9-6-82.2-13.3v7.5"/>
          <path class="cls-4" d="M283.4,377.7v2c-2.2,2.6-15.8,6.5-32.9,9.3-13,2-29.9,3.5-51.1,3.5s-36.1-1.4-48.5-3.3c-19.6-2.9-32.1-7.9-34.7-9.3v-2.3c7.6,5,28.1,8.7,34.9,9.8,12.3,1.9,28.2,3.3,48.2,3.3s37.9-1.5,50.8-3.5c12.3-1.8,29.7-6.4,33.1-9.4h0ZM283.4,370.6v2c-2.2,2.6-15.8,6.5-32.9,9.3-13,2-29.9,3.5-51.1,3.5s-36.1-1.4-48.5-3.3c-19.6-2.9-32.1-7.9-34.7-9.3v-2.3c7.6,5,28.1,8.7,34.9,9.8,12.3,1.9,28.2,3.3,48.2,3.3s37.9-1.5,50.8-3.5c12.3-1.8,29.7-6.4,33.1-9.4h0s0,0,0,0Z"/>
          <path class="cls-4" d="M199.8,424.4c-35.6-.2-66.2-9.7-72.6-11.3l4.7,7.4c11.4,4.8,41.2,11.9,68.3,11.1,27.1-.8,50.8-2.9,67.4-11l4.8-7.6c-11.4,5.4-50.1,11.4-72.6,11.4"/>
          <path class="cls-7" d="M269.4,418.9c-.7,1.1-1.4,2.2-2.2,3.2-7.9,2.8-20.3,5.7-25.5,6.5-10.7,2.2-27.2,3.8-41.9,3.8-31.6-.5-57.4-6.6-69.6-11.9l-1-1.7.2-.3,1.7.6c21.6,7.7,45.9,10.8,68.9,11.4,14.6,0,29.2-1.7,41.1-3.8,18.1-3.6,25.5-6.4,27.7-7.6l.6-.3h0,0ZM273.6,412s0,0,0,0c-.5.9-1.1,1.8-1.6,2.7-4.2,1.5-15.6,4.8-32.2,7.2-11,1.5-17.8,2.9-39.6,3.4-40.8-1-67.3-9-73.6-11l-.9-1.8c23.7,6.2,47.9,10.5,74.5,10.9,19.9-.4,28.4-1.9,39.3-3.4,19.4-3,29.2-6.2,32.1-7.1,0,0,0-.1-.1-.2l2.1-.8h0s0,0,0,0Z"/>
          <path class="cls-4" d="M274,372.3c.1,23.4-11.9,44.5-21.5,53.8-13.7,13.1-31.8,21.6-53,22-23.6.4-45.9-15-51.9-21.7-11.7-13.2-21.2-30-21.5-52.7,1.4-25.6,11.5-43.4,26.1-55.6,14.6-12.2,34-18.2,50.1-17.8,18.6.5,40.4,9.6,55.4,27.8,9.9,11.9,14.1,24.8,16.4,44.3h0ZM199.7,292c45.4,0,82.7,36.9,82.7,82.3s-37.3,82.3-82.7,82.3-82.4-36.9-82.4-82.3,37-82.3,82.4-82.3"/>
          <path class="cls-4" d="M199.9,291.7c45.4,0,82.5,37.1,82.5,82.5s-37.1,82.5-82.5,82.5-82.5-37.1-82.5-82.5,37.1-82.5,82.5-82.5h0ZM119.2,374.2c0,44.4,36.4,80.7,80.7,80.7s80.7-36.3,80.7-80.7-36.4-80.7-80.7-80.7-80.7,36.3-80.7,80.7h0Z"/>
          <path class="cls-4" d="M200,298.6c41.4,0,75.6,34,75.6,75.6s-34.1,75.6-75.6,75.6-75.6-34-75.6-75.6,34.1-75.6,75.6-75.6h0ZM126.2,374.1c0,40.6,33.3,73.8,73.8,73.8s73.8-33.2,73.8-73.8-33.3-73.8-73.8-73.8-73.8,33.2-73.8,73.8h0Z"/>
          <path class="cls-4" d="M203.3,291.4h-7.1v165.8h7.1v-165.8Z"/>
          <path class="cls-4" d="M202.6,290.4h1.8v167.7s-1.8,0-1.8,0v-167.7s0,0,0,0ZM195.6,290.4h1.8v167.7s-1.8,0-1.8,0v-167.7h0Z"/>
          <path class="cls-4" d="M282.5,377.4v-6.1l-5-4.7-28.3-7.5-40.8-4.2-49.2,2.5-35,8.3-7.1,5.2v6.1l17.9-8,42.5-6.7h40.8l30,3.3,20.8,5,13.3,6.6Z"/>
          <path class="cls-4" d="M200,361.4c19.5,0,38.4,1.8,53.4,4.8,15.5,3.1,26.4,7,30.1,11.3v2.2c-4.5-5.4-19.1-9.4-30.4-11.6-14.9-2.9-33.7-4.8-53-4.7-20.4,0-39.5,2-54.2,4.8-11.8,2.3-27.5,7-29.4,11.5v-2.2c1.1-3.2,12.8-7.9,29.2-11.2,14.8-2.9,33.8-4.8,54.4-4.8h0ZM200,354.4c19.5,0,38.4,1.8,53.4,4.8,15.5,3.1,26.4,7,30.1,11.3v2.2c-4.5-5.4-19.1-9.4-30.4-11.6-14.9-2.9-33.7-4.8-53-4.7-20.4,0-39.4,2-54.1,4.8-11.4,2.2-27.7,7-29.5,11.6v-2.2c1.1-3.1,13-8,29.2-11.2,14.8-2.9,33.8-4.8,54.4-4.8h0Z"/>
          <path class="cls-4" d="M199.6,318.3c30.7-.2,57.5,4.3,69.7,10.6l4.5,7.7c-10.7-5.7-39.5-11.7-74.2-10.8-28.2.2-58.4,3.1-73.5,11.2l5.3-8.9c12.4-6.4,41.7-9.7,68.1-9.7"/>
          <path class="cls-4" d="M200,324.7c17.5,0,34.4.9,47.9,3.4,12.5,2.3,24.5,5.8,26.2,7.7l1.3,2.3c-4.2-2.7-14.5-5.7-27.8-8.3-13.3-2.5-30.2-3.3-47.7-3.3-19.8,0-35.1,1-48.3,3.3-13.9,2.6-23.6,6.3-26,8.1l1.3-2.5c4.6-2.4,12-5.2,24.4-7.4,13.6-2.5,29.2-3.2,48.7-3.3h0ZM200,317.6c16.8,0,33.3.9,46.2,3.2,10.2,2,20.2,5.1,23.9,7.8l1.9,3.1c-3.3-3.7-15.7-7.1-26.6-9.1-12.8-2.2-28.7-3.1-45.4-3.2-17.6,0-33.8,1.1-46.5,3.4-12,2.3-19.8,5-23.1,7.1l1.7-2.6c4.5-2.4,11.9-4.6,21.1-6.4,12.7-2.3,29.1-3.4,46.8-3.4h0Z"/>
          <path class="cls-4" d="M241,408.5c-15.2-2.8-30.4-3.2-41-3.1-51.2.6-67.7,10.5-69.7,13.5l-3.8-6.2c13-9.4,40.9-14.7,73.8-14.2,17.1.3,31.9,1.4,44.3,3.8l-3.5,6.2"/>
          <path class="cls-7" d="M199.7,404.5c14.2.2,28.2.8,41.7,3.3l-1,1.7c-12.5-2.3-25.9-3.2-40.7-3.1-18.9-.1-38,1.6-54.6,6.4-5.2,1.5-13.9,4.8-14.8,7.6l-1-1.6c.3-1.6,5.5-5.1,15.3-7.8,19-5.5,36.9-6.4,55-6.5h0s0,0,0,0ZM200.3,397.4c14.7.3,30,1,44.8,3.9l-1,1.8c-13.4-2.7-26.1-3.5-43.7-3.8-18.9,0-39,1.4-57.3,6.7-5.9,1.7-16.1,5.4-16.4,8.4l-1-1.7c.2-2.7,9-6.2,17-8.5,18.4-5.4,38.6-6.7,57.7-6.8h0Z"/>
          <path class="cls-4" d="M273,413.6l-6.1,9.5-17.7-15.7-45.8-30.8-51.7-28.3-26.8-9.2,5.7-10.6,1.9-1.1,16.7,4.2,55,28.3,31.7,20,26.7,19.2,10.8,12.5-.4,2Z"/>
          <path class="cls-4" d="M123.9,339.4c4.7-3.2,39.3,12.2,75.5,34,36.1,21.9,70.6,46.6,67.5,51.2l-1,1.6-.5.4c.1,0,.6-.7,0-2.4-1.5-5.1-26-24.6-66.6-49.1-39.6-23.6-72.5-37.8-75.8-33.7l1-2h0,0ZM274.2,413.5c3-5.9-29.1-30-68.9-53.6-40.7-23.1-70-36.6-75.3-32.6l-1.2,2.2c0,.1,0-.1.3-.3,1-.8,2.6-.8,3.3-.8,9.2.1,35.6,12.3,72.5,33.4,16.2,9.4,68.4,42.9,68.2,52.3,0,.8,0,1-.2,1.4l1.3-2h0s0,0,0,0Z"/>
        </g>
        <g>
          <path class="cls-6" d="M150.5,383.3c0,13.6,5.6,25.8,14.5,34.8,9,9,21.3,14.6,34.8,14.6s26-5.5,35-14.5c9-8.9,14.5-21.3,14.5-34.9h0v-66h-98.9c0-.1,0,65.9,0,65.9h0,0Z"/>
          <path class="cls-3" d="M152.4,383.4h0c0,13,5.4,24.8,14,33.4,8.6,8.6,20.5,13.9,33.5,13.9s24.9-5.3,33.5-13.9c8.6-8.6,13.9-20.4,13.9-33.4h0v-64h-94.9s0,63.9,0,63.9M228.2,338.6v40.7s0,4.3,0,4.3h0c0,1.1,0,2.4-.2,3.5-.8,6.4-3.7,12.1-8.1,16.4-5.1,5.1-12.2,8.3-20,8.3s-14.7-3.3-19.9-8.4c-5.3-5.3-8.4-12.5-8.4-20v-45s56.6.1,56.6.1h0s0,0,0,0Z"/>
          <g id="castle3">
            <g id="castle">
              <path class="cls-8" d="M158.5,336.2c.1-4.6,3.4-5.7,3.4-5.7,0,0,3.5,1.2,3.5,5.7h-6.9"/>
              <path class="cls-2" d="M155.7,330.5l-.6,5.3h3.5c0-4.4,3.3-5.1,3.4-5.1,0,0,3.3,1,3.4,5.1h3.5l-.6-5.3h-12.5s0,0,0,0Z"/>
              <path class="cls-2" d="M154.9,335.9h14.1c.3,0,.5.3.5.7s-.2.7-.5.7h-14.1c-.3,0-.5-.3-.5-.7s.2-.7.5-.7Z"/>
              <path class="cls-2" d="M160,335.8c0-2.8,1.9-3.5,1.9-3.5,0,0,2,.8,2,3.5h-3.9"/>
              <path class="cls-2" d="M155.2,328.3h13.5c.3,0,.5.3.5.6s-.2.6-.5.6h-13.5c-.3,0-.5-.3-.5-.6s.2-.6.5-.6Z"/>
              <path class="cls-2" d="M155.5,329.5h12.9c.3,0,.5.3.5.6s-.2.6-.5.6h-12.9c-.3,0-.5-.3-.5-.6s.2-.6.5-.6Z"/>
              <path class="cls-2" d="M159.6,320.7h1v.7h.7v-.7h1v.7h.7v-.7h1v1.7c0,.3-.2.4-.5.4h-3.7c-.2,0-.5-.2-.5-.4v-1.7s0,0,0,0h0Z"/>
              <path class="cls-2" d="M163.5,322.9l.2,5.4h-3.6s.2-5.4.2-5.4h3.1"/>
              <path id="cp1" class="cls-2" d="M159.1,325.4v2.9c.1,0-3.3,0-3.3,0v-2.9h3.3,0,0Z"/>
              <path id="cp1-2" data-name="cp1" class="cls-2" d="M168,325.4v2.9c.1,0-3.3,0-3.3,0v-2.9h3.3,0,0Z"/>
              <path id="cp2" class="cls-2" d="M155.3,323.3h1v.7h.7v-.7h1v.7h.7v-.7h1s0,1.7,0,1.7c0,.3-.2.4-.4.4h-3.6c-.2,0-.5-.2-.5-.4v-1.7s0,0,0,0h0Z"/>
              <path id="cp2-2" data-name="cp2" class="cls-2" d="M164.1,323.3h1v.7h.7v-.7h1v.7h.7v-.7h1s0,1.7,0,1.7c0,.3-.2.4-.4.4h-3.6c-.2,0-.5-.2-.5-.4v-1.7s0,0,0,0h0Z"/>
              <path d="M161.6,324.6c0-.5.7-.5.7,0v1.3h-.7v-1.3"/>
              <path id="cp3" d="M157.1,326.5c0-.5.7-.5.7,0v1h-.7v-1"/>
              <path id="cp3-2" data-name="cp3" d="M166,326.5c0-.5.7-.5.7,0v1h-.7v-1"/>
            </g>
            <g id="castle-2" data-name="castle">
              <path class="cls-8" d="M158.5,374.8c.1-4.6,3.4-5.7,3.4-5.7,0,0,3.5,1.2,3.5,5.7h-6.9"/>
              <path class="cls-2" d="M155.7,369.1l-.6,5.3h3.5c0-4.4,3.3-5.1,3.4-5.1,0,0,3.3,1,3.4,5.1h3.5l-.6-5.3h-12.5s0,0,0,0Z"/>
              <path class="cls-2" d="M154.9,374.5h14.1c.3,0,.5.3.5.7s-.2.7-.5.7h-14.1c-.3,0-.5-.3-.5-.7s.2-.7.5-.7Z"/>
              <path class="cls-2" d="M160,374.4c0-2.8,1.9-3.5,1.9-3.5,0,0,2,.8,2,3.5h-3.9"/>
              <path class="cls-2" d="M155.2,366.9h13.5c.3,0,.5.3.5.6s-.2.6-.5.6h-13.5c-.3,0-.5-.3-.5-.6s.2-.6.5-.6Z"/>
              <path class="cls-2" d="M155.5,368.1h12.9c.3,0,.5.3.5.6s-.2.6-.5.6h-12.9c-.3,0-.5-.3-.5-.6s.2-.6.5-.6Z"/>
              <path class="cls-2" d="M159.6,359.3h1v.7h.7v-.7h1v.7h.7v-.7h1v1.7c0,.3-.2.4-.5.4h-3.7c-.2,0-.5-.2-.5-.4v-1.7s0,0,0,0h0Z"/>
              <path class="cls-2" d="M163.5,361.5l.2,5.4h-3.6s.2-5.4.2-5.4h3.1"/>
              <path id="cp1-3" data-name="cp1" class="cls-2" d="M159.1,364v2.9c.1,0-3.3,0-3.3,0v-2.9h3.3,0,0Z"/>
              <path id="cp1-4" data-name="cp1" class="cls-2" d="M168,364v2.9c.1,0-3.3,0-3.3,0v-2.9h3.3,0,0Z"/>
              <path id="cp2-3" data-name="cp2" class="cls-2" d="M155.3,361.9h1v.7h.7v-.7h1v.7h.7v-.7h1s0,1.7,0,1.7c0,.3-.2.4-.4.4h-3.6c-.2,0-.5-.2-.5-.4v-1.7s0,0,0,0h0Z"/>
              <path id="cp2-4" data-name="cp2" class="cls-2" d="M164.1,361.9h1v.7h.7v-.7h1v.7h.7v-.7h1s0,1.7,0,1.7c0,.3-.2.4-.4.4h-3.6c-.2,0-.5-.2-.5-.4v-1.7s0,0,0,0h0Z"/>
              <path d="M161.6,363.2c0-.5.7-.5.7,0v1.3h-.7v-1.3"/>
              <path id="cp3-3" data-name="cp3" d="M157.1,365.1c0-.5.7-.5.7,0v1h-.7v-1"/>
              <path id="cp3-4" data-name="cp3" d="M166,365.1c0-.5.7-.5.7,0v1h-.7v-1"/>
            </g>
            <g id="castle-3" data-name="castle">
              <path class="cls-8" d="M173.5,414.9c-3.2-3.3-1.7-6.4-1.7-6.4,0,0,3.3-1.7,6.6,1.6l-4.9,4.9"/>
              <path class="cls-5" d="M167.6,413l3.4,4.1,2.4-2.4c-3.1-3.1-1.3-5.9-1.2-6,0,0,3-1.7,6,1.2l2.4-2.5-4.2-3.3-8.8,8.9h0s0,0,0,0Z"/>
              <path class="cls-5" d="M170.8,417.3l10-10c.2-.2.6-.2.8,0s.3.6,0,.8l-10,10c-.2.2-.6.2-.8,0s-.3-.6,0-.8Z"/>
              <path class="cls-5" d="M174.4,413.6c-1.9-2-1.2-3.8-1.2-3.8,0,0,1.9-.8,3.9,1.1l-2.7,2.7"/>
              <path class="cls-5" d="M165.7,411.8l9.5-9.6c.2-.2.6-.2.8,0s.3.6,0,.8l-9.5,9.6c-.2.2-.6.2-.8,0s-.3-.6,0-.8Z"/>
              <path class="cls-5" d="M166.7,412.4l9.1-9.2c.2-.2.5-.2.8,0s.3.6,0,.8l-9.1,9.2c-.2.2-.5.2-.8,0s-.3-.6,0-.8Z"/>
              <path class="cls-5" d="M163.4,403.2l.7-.7.5.5.5-.5-.5-.5.7-.7.5.5.5-.5-.5-.5.7-.7,1.2,1.2c.2.2.2.5,0,.6l-2.6,2.6c-.2.2-.5.2-.6,0l-1.2-1.2h0s0,0,0,0Z"/>
              <path class="cls-5" d="M167.7,402.1l4,3.6-2.5,2.5-3.6-4,2.2-2.2"/>
              <path id="cp1-5" data-name="cp1" class="cls-5" d="M166.4,406.9l2.1,2-2.4,2.4-2-2.1,2.3-2.3h0s0,0,0,0Z"/>
              <path id="cp1-6" data-name="cp1" class="cls-5" d="M172.6,400.7l2.1,2-2.4,2.4-2-2.1,2.3-2.3h0s0,0,0,0Z"/>
              <path id="cp2-5" data-name="cp2" class="cls-5" d="M162.2,408.2l.7-.7.5.5.5-.5-.5-.5.7-.7.5.5.5-.5-.5-.5.7-.7,1.2,1.2c.2.2.2.5,0,.6l-2.5,2.6c-.2.2-.5.2-.6,0l-1.2-1.2h0s0,0,0,0Z"/>
              <path id="cp2-6" data-name="cp2" class="cls-5" d="M168.4,401.9l.7-.7.5.5.5-.5-.5-.5.7-.7.5.5.5-.5-.5-.5.7-.7,1.2,1.2c.2.2.2.5,0,.6l-2.5,2.6c-.2.2-.5.2-.6,0l-1.2-1.2h0s0,0,0,0Z"/>
              <path d="M167.5,404.6c-.4-.4.1-.9.5-.5l.9.9-.5.5-.9-.9"/>
              <path id="cp3-5" data-name="cp3" d="M165.7,409.1c-.4-.4.1-.9.5-.5l.7.7-.5.5-.7-.7"/>
              <path id="cp3-6" data-name="cp3" d="M172,402.8c-.4-.4.1-.9.5-.5l.7.7-.5.5-.7-.7"/>
            </g>
          </g>
          <g id="castle-4" data-name="castle">
            <path class="cls-8" d="M196.6,336.2c.1-4.6,3.4-5.7,3.4-5.7,0,0,3.5,1.2,3.5,5.7h-6.9"/>
            <path class="cls-2" d="M193.8,330.5l-.6,5.3h3.5c0-4.4,3.3-5.1,3.4-5.1,0,0,3.3,1,3.4,5.1h3.5l-.6-5.3h-12.5s0,0,0,0Z"/>
            <path class="cls-2" d="M193,335.9h14.1c.3,0,.5.3.5.7s-.2.7-.5.7h-14.1c-.3,0-.5-.3-.5-.7s.2-.7.5-.7Z"/>
            <path class="cls-2" d="M198.1,335.8c0-2.8,1.9-3.5,1.9-3.5,0,0,2,.8,2,3.5h-3.9"/>
            <path class="cls-2" d="M193.3,328.3h13.5c.3,0,.5.3.5.6s-.2.6-.5.6h-13.5c-.3,0-.5-.3-.5-.6s.2-.6.5-.6Z"/>
            <path class="cls-2" d="M193.6,329.5h12.9c.3,0,.5.3.5.6s-.2.6-.5.6h-12.9c-.3,0-.5-.3-.5-.6s.2-.6.5-.6Z"/>
            <path class="cls-2" d="M197.7,320.7h1v.7h.7v-.7h1v.7h.7v-.7h1v1.7c0,.3-.2.4-.5.4h-3.7c-.2,0-.5-.2-.5-.4v-1.7s0,0,0,0h0Z"/>
            <path class="cls-2" d="M201.6,322.9l.2,5.4h-3.6s.2-5.4.2-5.4h3.1"/>
            <path id="cp1-7" data-name="cp1" class="cls-2" d="M197.2,325.4v2.9c.1,0-3.3,0-3.3,0v-2.9h3.3,0,0Z"/>
            <path id="cp1-8" data-name="cp1" class="cls-2" d="M206.1,325.4v2.9c.1,0-3.3,0-3.3,0v-2.9h3.3,0,0Z"/>
            <path id="cp2-7" data-name="cp2" class="cls-2" d="M193.3,323.3h1v.7h.7v-.7h1v.7h.7v-.7h1s0,1.7,0,1.7c0,.3-.2.4-.4.4h-3.6c-.2,0-.5-.2-.5-.4v-1.7s0,0,0,0h0Z"/>
            <path id="cp2-8" data-name="cp2" class="cls-2" d="M202.2,323.3h1v.7h.7v-.7h1v.7h.7v-.7h1s0,1.7,0,1.7c0,.3-.2.4-.4.4h-3.6c-.2,0-.5-.2-.5-.4v-1.7s0,0,0,0h0Z"/>
            <path d="M199.7,324.6c0-.5.7-.5.7,0v1.3h-.7v-1.3"/>
            <path id="cp3-7" data-name="cp3" d="M195.2,326.5c0-.5.7-.5.7,0v1h-.7v-1"/>
            <path id="cp3-8" data-name="cp3" d="M204.1,326.5c0-.5.7-.5.7,0v1h-.7v-1"/>
          </g>
          <g id="castle3-2" data-name="castle3">
            <g id="castle-5" data-name="castle">
              <path class="cls-8" d="M241.3,336.2c-.1-4.6-3.4-5.7-3.4-5.7,0,0-3.5,1.2-3.5,5.7h6.9"/>
              <path class="cls-2" d="M244.2,330.5l.6,5.3h-3.5c0-4.4-3.3-5.1-3.4-5.1,0,0-3.3,1-3.4,5.1h-3.5l.6-5.3h12.5s0,0,0,0Z"/>
              <path class="cls-2" d="M245,335.9h-14.1c-.3,0-.5.3-.5.7s.2.7.5.7h14.1c.3,0,.5-.3.5-.7s-.2-.7-.5-.7Z"/>
              <path class="cls-2" d="M239.8,335.8c0-2.8-1.9-3.5-1.9-3.5,0,0-2,.8-2,3.5h3.9"/>
              <path class="cls-2" d="M244.7,328.3h-13.5c-.3,0-.5.3-.5.6s.2.6.5.6h13.5c.3,0,.5-.3.5-.6s-.2-.6-.5-.6Z"/>
              <path class="cls-2" d="M244.4,329.5h-12.9c-.3,0-.5.3-.5.6s.2.6.5.6h12.9c.3,0,.5-.3.5-.6s-.2-.6-.5-.6Z"/>
              <path class="cls-2" d="M240.2,320.7h-1v.7h-.7v-.7h-1v.7h-.7v-.7h-1v1.7c0,.3.2.4.5.4h3.7c.2,0,.5-.2.5-.4v-1.7s0,0,0,0h0Z"/>
              <path class="cls-2" d="M236.3,322.9l-.2,5.4h3.6s-.2-5.4-.2-5.4h-3.1"/>
              <path id="cp1-9" data-name="cp1" class="cls-2" d="M240.7,325.4v2.9c-.1,0,3.3,0,3.3,0v-2.9h-3.3,0,0Z"/>
              <path id="cp1-10" data-name="cp1" class="cls-2" d="M231.9,325.4v2.9c-.1,0,3.3,0,3.3,0v-2.9h-3.3,0,0Z"/>
              <path id="cp2-9" data-name="cp2" class="cls-2" d="M244.6,323.3h-1v.7h-.7v-.7h-1v.7h-.7v-.7h-1s0,1.7,0,1.7c0,.3.2.4.4.4h3.6c.2,0,.5-.2.5-.4v-1.7s0,0,0,0h0Z"/>
              <path id="cp2-10" data-name="cp2" class="cls-2" d="M235.7,323.3h-1v.7h-.7v-.7h-1v.7h-.7v-.7h-1s0,1.7,0,1.7c0,.3.2.4.4.4h3.6c.2,0,.5-.2.5-.4v-1.7s0,0,0,0h0Z"/>
              <path d="M238.2,324.6c0-.5-.7-.5-.7,0v1.3h.7v-1.3"/>
              <path id="cp3-9" data-name="cp3" d="M242.7,326.5c0-.5-.7-.5-.7,0v1h.7v-1"/>
              <path id="cp3-10" data-name="cp3" d="M233.8,326.5c0-.5-.7-.5-.7,0v1h.7v-1"/>
            </g>
            <g id="castle-6" data-name="castle">
              <path class="cls-8" d="M241.3,374.8c-.1-4.6-3.4-5.7-3.4-5.7,0,0-3.5,1.2-3.5,5.7h6.9"/>
              <path class="cls-2" d="M244.2,369.1l.6,5.3h-3.5c0-4.4-3.3-5.1-3.4-5.1,0,0-3.3,1-3.4,5.1h-3.5l.6-5.3h12.5s0,0,0,0Z"/>
              <path class="cls-2" d="M245,374.5h-14.1c-.3,0-.5.3-.5.7s.2.7.5.7h14.1c.3,0,.5-.3.5-.7s-.2-.7-.5-.7Z"/>
              <path class="cls-2" d="M239.8,374.4c0-2.8-1.9-3.5-1.9-3.5,0,0-2,.8-2,3.5h3.9"/>
              <path class="cls-2" d="M244.7,366.9h-13.5c-.3,0-.5.3-.5.6s.2.6.5.6h13.5c.3,0,.5-.3.5-.6s-.2-.6-.5-.6Z"/>
              <path class="cls-2" d="M244.4,368.1h-12.9c-.3,0-.5.3-.5.6s.2.6.5.6h12.9c.3,0,.5-.3.5-.6s-.2-.6-.5-.6Z"/>
              <path class="cls-2" d="M240.2,359.3h-1v.7h-.7v-.7h-1v.7h-.7v-.7h-1v1.7c0,.3.2.4.5.4h3.7c.2,0,.5-.2.5-.4v-1.7s0,0,0,0h0Z"/>
              <path class="cls-2" d="M236.3,361.5l-.2,5.4h3.6s-.2-5.4-.2-5.4h-3.1"/>
              <path id="cp1-11" data-name="cp1" class="cls-2" d="M240.7,364v2.9c-.1,0,3.3,0,3.3,0v-2.9h-3.3,0,0Z"/>
              <path id="cp1-12" data-name="cp1" class="cls-2" d="M231.9,364v2.9c-.1,0,3.3,0,3.3,0v-2.9h-3.3,0,0Z"/>
              <path id="cp2-11" data-name="cp2" class="cls-2" d="M244.6,361.9h-1v.7h-.7v-.7h-1v.7h-.7v-.7h-1s0,1.7,0,1.7c0,.3.2.4.4.4h3.6c.2,0,.5-.2.5-.4v-1.7s0,0,0,0h0Z"/>
              <path id="cp2-12" data-name="cp2" class="cls-2" d="M235.7,361.9h-1v.7h-.7v-.7h-1v.7h-.7v-.7h-1s0,1.7,0,1.7c0,.3.2.4.4.4h3.6c.2,0,.5-.2.5-.4v-1.7s0,0,0,0h0Z"/>
              <path d="M238.2,363.2c0-.5-.7-.5-.7,0v1.3h.7v-1.3"/>
              <path id="cp3-11" data-name="cp3" d="M242.7,365.1c0-.5-.7-.5-.7,0v1h.7v-1"/>
              <path id="cp3-12" data-name="cp3" d="M233.8,365.1c0-.5-.7-.5-.7,0v1h.7v-1"/>
            </g>
            <g id="castle-7" data-name="castle">
              <path class="cls-8" d="M226.3,414.9c3.2-3.3,1.7-6.4,1.7-6.4,0,0-3.3-1.7-6.6,1.6l4.9,4.9"/>
              <path class="cls-5" d="M232.3,413l-3.4,4.1-2.4-2.4c3.1-3.1,1.3-5.9,1.2-6,0,0-3-1.7-6,1.2l-2.4-2.5,4.2-3.3,8.8,8.9h0s0,0,0,0Z"/>
              <path class="cls-5" d="M229.1,417.3l-10-10c-.2-.2-.6-.2-.8,0s-.3.6,0,.8l10,10c.2.2.6.2.8,0s.3-.6,0-.8Z"/>
              <path class="cls-5" d="M225.5,413.6c1.9-2,1.2-3.8,1.2-3.8,0,0-1.9-.8-3.9,1.1l2.7,2.7"/>
              <path class="cls-5" d="M234.2,411.8l-9.5-9.6c-.2-.2-.6-.2-.8,0s-.3.6,0,.8l9.5,9.6c.2.2.6.2.8,0s.3-.6,0-.8Z"/>
              <path class="cls-5" d="M233.1,412.4l-9.1-9.2c-.2-.2-.5-.2-.8,0s-.3.6,0,.8l9.1,9.2c.2.2.5.2.8,0s.3-.6,0-.8Z"/>
              <path class="cls-5" d="M236.4,403.2l-.7-.7-.5.5-.5-.5.5-.5-.7-.7-.5.5-.5-.5.5-.5-.7-.7-1.2,1.2c-.2.2-.2.5,0,.6l2.6,2.6c.2.2.5.2.6,0l1.2-1.2h0s0,0,0,0Z"/>
              <path class="cls-5" d="M232.1,402.1l-4,3.6,2.5,2.5,3.6-4-2.2-2.2"/>
              <path id="cp1-13" data-name="cp1" class="cls-5" d="M233.5,406.9l-2.1,2,2.4,2.4,2-2.1-2.3-2.3h0s0,0,0,0Z"/>
              <path id="cp1-14" data-name="cp1" class="cls-5" d="M227.2,400.7l-2.1,2,2.4,2.4,2-2.1-2.3-2.3h0s0,0,0,0Z"/>
              <path id="cp2-13" data-name="cp2" class="cls-5" d="M237.7,408.2l-.7-.7-.5.5-.5-.5.5-.5-.7-.7-.5.5-.5-.5.5-.5-.7-.7-1.2,1.2c-.2.2-.2.5,0,.6l2.5,2.6c.2.2.5.2.6,0l1.2-1.2h0s0,0,0,0Z"/>
              <path id="cp2-14" data-name="cp2" class="cls-5" d="M231.4,401.9l-.7-.7-.5.5-.5-.5.5-.5-.7-.7-.5.5-.5-.5.5-.5-.7-.7-1.2,1.2c-.2.2-.2.5,0,.6l2.5,2.6c.2.2.5.2.6,0l1.2-1.2h0s0,0,0,0Z"/>
              <path d="M232.3,404.6c.4-.4-.1-.9-.5-.5l-.9.9.5.5.9-.9"/>
              <path id="cp3-13" data-name="cp3" d="M234.1,409.1c.4-.4-.1-.9-.5-.5l-.7.7.5.5.7-.7"/>
              <path id="cp3-14" data-name="cp3" d="M227.8,402.8c.4-.4-.1-.9-.5-.5l-.7.7.5.5.7-.7"/>
            </g>
          </g>
          <g id="quina">
            <path class="cls-1" d="M193.9,376.1h0c0,1.8.7,3.5,1.8,4.7,1.1,1.2,2.7,2,4.4,2s3.3-.8,4.4-2c1.1-1.2,1.8-2.9,1.8-4.7v-9h-12.5s0,9,0,9"/>
            <path class="cls-11" d="M196.7,370.6h0M203.7,370.6h0M200.2,373.9h0M196.7,377.4h0M203.7,377.4h0"/>
          </g>
          <g id="quina-2" data-name="quina">
            <path class="cls-1" d="M193.9,354.5h0c0,1.8.7,3.5,1.8,4.7,1.1,1.2,2.7,2,4.4,2s3.3-.8,4.4-2c1.1-1.2,1.8-2.9,1.8-4.7v-9h-12.5s0,9,0,9"/>
            <path class="cls-11" d="M196.7,348.9h0M203.7,348.9h0M200.2,352.2h0M196.7,355.7h0M203.7,355.7h0"/>
          </g>
          <g id="quina-3" data-name="quina">
            <path class="cls-1" d="M176.5,376.1h0c0,1.8.7,3.5,1.8,4.7,1.1,1.2,2.7,2,4.4,2s3.3-.8,4.4-2c1.1-1.2,1.8-2.9,1.8-4.7v-9h-12.5s0,9,0,9"/>
            <path class="cls-11" d="M179.4,370.6h0M186.3,370.6h0M182.9,373.9h0M179.4,377.4h0M186.3,377.4h0"/>
          </g>
          <g id="quina-4" data-name="quina">
            <path class="cls-1" d="M211.2,376.1h0c0,1.8.7,3.5,1.8,4.7,1.1,1.2,2.7,2,4.4,2s3.3-.8,4.4-2c1.1-1.2,1.8-2.9,1.8-4.7v-9h-12.5s0,9,0,9"/>
            <path class="cls-11" d="M214,370.6h0M220.9,370.6h0M217.5,373.9h0M214,377.4h0M220.9,377.4h0"/>
          </g>
          <g id="quina-5" data-name="quina">
            <path class="cls-1" d="M193.9,397.6h0c0,1.8.7,3.5,1.8,4.7,1.1,1.2,2.7,2,4.4,2s3.3-.8,4.4-2c1.1-1.2,1.8-2.9,1.8-4.7v-9h-12.5s0,9,0,9"/>
            <path class="cls-11" d="M196.7,392.1h0M203.7,392.1h0M200.2,395.4h0M196.7,398.9h0M203.7,398.9h0"/>
          </g>
        </g>
      </g>
      <g>
        <path class="cls-10" d="M0,0h125l5.2,5.2h239.7l5.2-5.2h125v250h-125l-5.2-5.2h-239.7l-5.2,5.2H0V0Z"/>
        <path class="cls-9" d="M125,0h250v250H125V0ZM254.7,230.7l-2.3-44.9c-.1-2.7,2-5,4.7-5.2.4,0,.7,0,1.1,0l44.7,7.9-6-16.7c-.5-1.4,0-2.9,1-3.8l49-39.7-11-5.2c-1.5-.7-2.3-2.5-1.8-4.1l9.7-29.8-28.2,6c-1.6.3-3.2-.5-3.8-2l-5.5-12.9-22,23.6c-1.3,1.4-3.4,1.4-4.8.1-.8-.8-1.2-2-1-3.1l10.6-54.8-17,9.8c-1.6.9-3.7.4-4.6-1.2,0,0,0-.1-.1-.2l-17.3-34-17.3,34c-.8,1.7-2.9,2.3-4.5,1.5,0,0-.1,0-.2-.1l-17-9.8,10.6,54.8c.4,1.8-.8,3.6-2.7,4-1.1.2-2.3-.2-3.1-1l-22-23.6-5.5,12.9c-.6,1.5-2.2,2.3-3.8,2l-28.2-6,9.7,29.8c.5,1.6-.2,3.4-1.8,4.1l-11,5.2,49,39.7c1.1.9,1.5,2.4,1,3.8l-6,16.7,44.7-7.9c2.7-.5,5.3,1.3,5.7,4,0,.4,0,.7,0,1.1l-2.3,44.9h9.4Z"/>
      </g>
    </g>
  </g>
</svg>